<svg xmlns="http://www.w3.org/2000/svg" width="187.3" height="96.6" viewBox="0 0 187.3 96.6">
  <linearGradient id="a" gradientUnits="userSpaceOnUse" x1="93.639" y1="89.384" x2="93.639" y2="-2.076">
    <stop offset="0" stop-color="#47B289"/>
    <stop offset="1" stop-color="#006F84"/>
  </linearGradient>
  <path fill="url(#a)" d="M36.9 10.5c0-.5 1.9-1.5 4-1.5 1.1 0 1.7.3 2.1.5.1-.8.3-3.7.5-6.2v-.5c0-.5-.1-.7-1-.7-2.7 0-4.6 1.8-5.5 3.1h-.3s-.2-.6-.9-1.5c-.8-1.1-2.4-1.3-3-1.3h-3.3v26.1H37v-18zm31.8 16.2c1.4.9 4.7 1.9 8.4 1.9 5.6 0 9.6-2.8 9.6-8.3 0-10-11.1-5.8-11.1-10.1v-.4c.1-1 1.3-1.4 2.8-1.4h.6c3.9.2 5.6 1.3 5.6 1.3.1-.4.7-3.9.8-5.2v-.8c-.1-.5-.3-.6-.6-.7-.3-.1-3-1-6.3-1-5.5 0-10.2 2.7-10.2 8.7 0 9.5 11.1 5.6 11.1 9.8 0 1.4-1.1 1.8-3 1.8-2.8 0-6.9-1.8-6.9-1.8-.5 1.8-1.1 4.5-1.2 5.4v.2c-.1.3 0 .5.4.6zm32.8 2h.4c4.9 0 7.4-1.2 8-1.6.3-.1.3-.5.3-.5 0-.2 0-.5-.1-.9-.3-2.5-.9-4.7-.9-4.7s-2.4 1.6-7.1 1.6c-5.4 0-6-3.8-6-5.2v-.2h14.7s.2-.5.2-3.4c0-7-3-11.6-9.9-11.6-8-.1-12.1 5.3-12.1 13.1 0 10.2 4.9 13.4 12.5 13.4zm-.9-21.4c3.2 0 3.5 2.6 3.5 5.1v.6h-8c.3-2.5 1.4-5.7 4.5-5.7zm12.8 13.8c0 4.9 2.7 7.5 6.4 7.5 2.9 0 4.8-.6 6.8-2.7h.2c.3.5 1.1 1.6 1.7 1.9.7.4 1.2.5 2.3.5h3.2v-13c0-4.8-.3-8.3-2.1-10.4-1.6-1.9-3.4-2.9-7.4-2.9-4.2 0-8.1 1.6-9.2 2-.6.3-1.1.6-1.1 1.2 0 1.5 1.5 5.6 1.5 5.6s2.6-2.4 7.1-2.4c3.1 0 3.7 2 3.7 3.6-6.5.1-13.1 1.4-13.1 9.1zm12.2-4.6h1v4.9s-1.8 1.5-4.5 1.5c-1.5 0-2.3-1.3-2.3-2.9 0-3 3-3.5 5.8-3.5zm20.5 12.2c3.2 0 4.9-.7 6.7-2.6h.3c.2.3.8 1.4 1.6 1.9.6.4 1 .5 2.6.5h2.5V3.6c0-.7-.5-1.2-1.3-1.2h-5.9v19.1c.1 0-1.8 1.4-4 1.4-2.8 0-3.1-2.6-3.1-4.6V2.5h-7.2v18.2c0 2.8.9 8 7.8 8zM35.2 62.3c2.9 0 5.3-.6 7.4-2.7h.2c.3.5 1.1 1.6 1.7 1.9.7.5 1.7.5 2.7.5h3.2V49c0-4.8-.3-8.3-2.1-10.4-1.6-1.9-4.2-2.8-8.2-2.8-4.2 0-8.4 1.5-9.5 1.9-.6.2-1.1.6-1.1 1.2 0 1.5 1.5 5.6 1.5 5.6s3.3-2.4 7.8-2.4c3.1 0 3.7 2 3.7 3.6-6.6 0-13.9 1.3-13.9 9 0 5 2.8 7.6 6.6 7.6zm6.3-12.1h1v4.9s-1.8 1.5-4.5 1.5c-1.5 0-2.3-1.3-2.3-2.9 0-3.1 2.9-3.5 5.8-3.5zM74.1 59c-.2-1.5-1-4.8-1-5.3 0 0-3.2 2.2-6 2.2-4.7 0-5.6-4.3-5.6-6.4v-.9c0-2.9 1.5-6.3 5.5-6.3 1.8 0 4 1.4 4.5 1.5.2-.3 1.6-3.5 2.2-5 .2-.4.1-.9-.4-1.2-1.4-.9-3.6-1.9-6.7-1.9-8.6 0-12.9 7-12.9 13.3 0 6.8 3.2 13.4 12.2 13.4 3 0 6-1 7.1-1.5.8-.5 1.3-.5 1.1-1.9zm13.1 3.3c2.1 0 3.1-.1 4.7-.6.9-.2.7-.8.8-1.3l-.3-5c-.5.2-1.9.6-2.8.6-2.8 0-3-1.4-3-3.4v-5.7h5.8v-5.6h-5.8V34s-5.5.9-6.6 1.1c-1.1.2-1.3.9-1.3 1.5v4.5h-2.8V46c0 .4.1.9.8.9h2v7.7c-.1 5.6 2.8 7.7 8.5 7.7zm13.2-28.4c-2.4 0-4.4 2-4.4 4.4s2 4.5 4.4 4.5c2.4 0 4.5-2 4.5-4.5s-2.1-4.4-4.5-4.4zm-4 12.2v16h7.9V44.7h-7c-.8 0-.9.7-.9 1.4zm24.1 16.2c6.7 0 12.7-5.7 12.7-13.4 0-7.5-3.6-13.2-12.3-13.2-6.7 0-12.7 5.7-12.7 13.4 0 7.5 3.6 13.2 12.3 13.2zm.2-20.3c4.1 0 4.8 4.3 4.8 7.3 0 3.7-1.8 6.7-4.7 6.7-4.1 0-4.8-4.3-4.8-7.3-.1-3.6 1.7-6.7 4.7-6.7zm31.6-6.3c-3.2 0-5.9 1.3-7.6 3.1h-.2c-.2-.5-.6-1.4-1.6-2.1-1-.6-1.7-.7-2.6-.7h-3.4v26h7.9V43.9s1.6-1.8 4.4-1.8c2.2 0 2.7 1.8 2.7 3.6V62h7.9V45.5c.1-3.7-.3-9.8-7.5-9.8zm-105.8 52s-3.2 2.2-6 2.2c-4.7 0-5.6-4.3-5.6-6.4v-.9c0-2.9 1.5-6.3 5.5-6.3 1.8 0 4 1.4 4.5 1.5.2-.3 1.6-3.5 2.2-5 .1-.4.1-.9-.4-1.2-1.4-.9-3.6-1.9-6.7-1.9-8.6 0-12.9 7-12.9 13.3 0 6.8 3.2 13.4 12.2 13.4 3 0 6-1 7.1-1.5.8-.4 1.3-.4 1.1-1.8-.2-1.6-.9-4.9-1-5.4zM61.1 90c-2.7 0-3-1.2-3-3.1V67.8l-7 1.2s-.9.1-.9 1.5v18.2c0 5.6 3.2 7.5 8.5 7.5 1.5 0 5.5-.2 5.5-1.3v-.3c0-.5-.3-5.2-.3-5.2-.5.1-1.7.6-2.8.6zm10.1-22.1c-2.4 0-4.4 2-4.4 4.4 0 2.4 2 4.5 4.4 4.5 2.4 0 4.5-2 4.5-4.5 0-2.4-2.1-4.4-4.5-4.4zm-4 12.2v16h7.9V78.7h-7c-.8 0-.9.7-.9 1.4zm41.3-10.4c-3.6 0-5.8 2-7.5 3.2h-.2c-1.8-2.9-3.9-3.2-6.3-3.2-2.9 0-5.6 1.2-7.4 3.1h-.2s-.5-2.8-3.4-2.8h-3.9v26.1H87V77.9s1.7-1.8 4.5-1.8c2.3 0 2.6 2.4 2.6 4.3v15.7h7.3V77.9s2-1.8 4.5-1.8c2.4 0 2.6 2.3 2.6 4.4V96h7.6V80.8c.2-6.3-.6-11.1-7.6-11.1zm22.6 0c-4.2 0-8.1 1.5-9.2 1.9-.7.2-1.1.6-1.1 1.2 0 1.5 1.5 5.6 1.5 5.6s3-2.4 7.5-2.4c3.1 0 3.7 2 3.7 3.6-6.6 0-13.5 1.3-13.5 9 0 4.9 2.8 7.5 6.5 7.5 2.9 0 5-.6 7-2.7h.2c.3.5 1.1 1.6 1.7 1.9.7.4 1.3.5 2.4.5h3.2V83c0-4.8-.3-8.3-2.1-10.4-1.6-1.9-3.9-2.9-7.8-2.9zm2.4 19.4s-1.8 1.5-4.5 1.5c-1.5 0-2.3-1.3-2.3-2.9 0-3.1 3-3.5 5.8-3.5h1v4.9zm25.9.3c-.5.2-1.5.6-2.3.6-2.8 0-2.6-1.4-2.6-3.4v-5.7h5v-5.6h-5V68s-5.5.9-6.6 1.1c-1.1.2-1.3.9-1.3 1.5v4.5h-2.8V80c0 .4.1.9.8.9h2v7.7c0 5.6 2.5 7.7 8.2 7.7 2.1 0 2.7-.1 4.2-.6.9-.2.8-.7.8-1.5-.2-1.4-.4-4.8-.4-4.8zm19.7-5.1h-4.6V89h-1.1c-1.2 0-2.2-.2-2.2-2.1 0-.7.2-2 .5-2.6 0 0-3.2-.3-3.6-.3-.3 0-.6.1-.9.5-.4.9-.8 2.6-.8 3.8 0 5.4 3.5 6.1 8 6.1v2h3.4c1 0 1.3-.5 1.3-1.1v-.9h7.9V89h-7.9v-4.7zm-6.4-10.8c0-.8.3-1.3.4-1.6-.6-.1-2.7-.2-4.6-.4h-.3c-.4 0-.5.1-.5.8 0 2 1.3 3 2.3 3.7v.2s-.5.1-1.1.7c-.8.6-1 1.8-1 2.2v2.3h19.3V76h-13.3c-.5.1-1.2-.9-1.2-2.5zm12.5-12.4c.4-.3 1.2-.9 1.4-1.3.3-.5.4-1.4.4-2.1v-1.9h-9.6c-3.6 0-6.1.3-7.7 1.6-1.4 1.2-2.1 2.7-2.1 5.6 0 3.1 1.1 5.8 1.4 6.6.2.5.4.8.9.8 1.1 0 4.1-1.1 4.1-1.1s-1.8-2-1.8-5.3c0-2.3 1.5-2.6 2.7-2.6 0 4.9 1 9.7 6.7 9.7 3.7 0 5.6-1.8 5.6-4.6 0-2.2-.5-3.6-2-5.1v-.3zm-4.3 5.1c-2.3 0-2.6-2.1-2.6-4.2v-.7h3.7s1.1 1.2 1.1 3.3c-.1 1.1-1 1.6-2.2 1.6zM175 41.7h12.1v-5.5h-12.2c-2.8 0-7.2.3-7.2 5.6 0 2.4 1 3.8 2.3 5.1v.2c-.4.1-1.1.5-1.6 1.3-.5.7-.5 1.3-.5 1.9v2.1h19.3v-5.5h-13.4s-1.4-1.1-1.4-3.2c-.1-1.7 1.2-2 2.6-2zm2.4-7.6c5.1 0 9.9-1.9 9.9-8.6 0-2.3-.8-4.2-1.1-5.1-.3-.6-.3-1-1.3-.8-1.1.2-3.6.7-3.9.8 0 0 1.7 2.4 1.7 4.5 0 2.2-1.6 3.9-5.5 3.9-4.3 0-4.6-2.5-4.6-3.8 0-1.4 1-3 1.1-3.4-.3-.1-2.6-1.2-3.7-1.6-.3-.1-.7-.1-.9.3-.7 1-1.4 2.5-1.4 4.8-.2 6.3 5 9 9.7 9zm0-15.4c7.5 0 9.9-3.7 9.9-9.3V9c0-3.7-.9-5.6-1.2-6-.1-.2-.4-.3-.4-.3h-.7c-1.8.2-3.5.7-3.5.7s1.2 1.8 1.2 5.3c0 4-2.8 4.3-3.9 4.3h-.1V2.3s-.4-.1-2.5-.1c-5.2 0-8.6 2.3-8.6 7.4 0 6 4 9.1 9.8 9.1zm-2.2-11.4h.5v5.8c-1.8-.1-4.2-.9-4.2-3.2-.1-2.3 1.8-2.6 3.7-2.6zM18.9 35.4V18.6c0-7.7-.1-16.4-16.9-16.4H.4c0 .4-.1 1.4-.1 3.6v.9c0 .4.3.5.7.5 2.8 0 10.2 1.2 10.2 11V35c0 12.2 6.2 13.3 6.2 13.3v.7c0 .3 0 .6-.2.6-.3.1-6.2 5.1-6.2 14.7v16.6C11 90.5 3.7 91.5.7 91.5c-.4 0-.6.3-.6.6-.1.7-.1.9-.1 1.7 0 1.3.1 2.8.1 2.8h1.7c16.8 0 16.9-8.7 16.9-16.4V64.9c0-8.2 5.3-13.7 6-14.3.6-.6.6-1 .6-1.8v-1.5c.1-.2-6.4-.8-6.4-11.9zm37.3-6.7h.4c4.9 0 7.6-1.2 8.2-1.6.3-.1.4-.5.4-.5 0-.2 0-.5-.1-.9-.3-2.5-.9-4.7-.9-4.7s-2.5 1.6-7.3 1.6c-5.4 0-6-3.8-6-5.2v-.2h14.8s.2-.5.2-3.4c0-6.1-2.4-10.3-7.5-11.4.9-1 1.5-2.3 1.5-2.3h-8.4l-.7 3c-4.8 1.8-7.2 6.4-7.2 12.4 0 10 5 13.2 12.6 13.2zm-.8-21.5c3.2 0 3.5 2.6 3.5 5.1v.7h-8c.2-2.5 1.3-5.8 4.5-5.8z"/>
</svg>